<?xml version="1.0" encoding="UTF-8" standalone="no"?>
<svg
   version="1.1"
   id="Layer_3"
   x="0px"
   y="0px"
   width="300"
   height="200"
   viewBox="0 0 300 199.99999"
   enable-background="new 0 0 229.946 169.242"
   xml:space="preserve"
   inkscape:version="1.3 (0e150ed, 2023-07-21)"
   sodipodi:docname="splash.svg"
   inkscape:export-filename="../../../../logo_sth.svg"
   inkscape:export-xdpi="150"
   inkscape:export-ydpi="150"
   xmlns:inkscape="http://www.inkscape.org/namespaces/inkscape"
   xmlns:sodipodi="http://sodipodi.sourceforge.net/DTD/sodipodi-0.dtd"
   xmlns="http://www.w3.org/2000/svg"
   xmlns:svg="http://www.w3.org/2000/svg"
   xmlns:rdf="http://www.w3.org/1999/02/22-rdf-syntax-ns#"
   xmlns:cc="http://creativecommons.org/ns#"
   xmlns:dc="http://purl.org/dc/elements/1.1/"><metadata
     id="metadata11"><rdf:RDF><cc:Work
         rdf:about=""><dc:format>image/svg+xml</dc:format><dc:type
           rdf:resource="http://purl.org/dc/dcmitype/StillImage" /></cc:Work></rdf:RDF></metadata><defs
     id="defs9"><inkscape:path-effect
       effect="fillet_chamfer"
       id="path-effect1"
       is_visible="true"
       lpeversion="1"
       nodesatellites_param="F,0,0,1,0,10,0,1 @ F,0,0,1,0,10,0,1 @ F,0,0,1,0,10,0,1 @ F,0,0,1,0,10,0,1"
       radius="0"
       unit="px"
       method="auto"
       mode="F"
       chamfer_steps="1"
       flexible="false"
       use_knot_distance="true"
       apply_no_radius="true"
       apply_with_radius="true"
       only_selected="false"
       hide_knots="false" /></defs><sodipodi:namedview
     pagecolor="#ffffff"
     bordercolor="#666666"
     borderopacity="1"
     objecttolerance="10"
     gridtolerance="10"
     guidetolerance="10"
     inkscape:pageopacity="0"
     inkscape:pageshadow="2"
     inkscape:window-width="1368"
     inkscape:window-height="945"
     id="namedview7"
     showgrid="false"
     inkscape:zoom="1.3944529"
     inkscape:cx="120.11879"
     inkscape:cy="154.18233"
     inkscape:window-x="312"
     inkscape:window-y="25"
     inkscape:window-maximized="0"
     inkscape:current-layer="Layer_3"
     inkscape:document-rotation="0"
     inkscape:snap-global="true"
     inkscape:showpageshadow="2"
     inkscape:pagecheckerboard="0"
     inkscape:deskcolor="#d1d1d1"
     showguides="true" /><g
     id="Layer_5"
     transform="matrix(0.20226559,0,0,0.20373128,1.2837888,-3.3584069)" /><g
     id="Layer_6"
     transform="matrix(0.20226559,0,0,0.20373128,1.2837888,-3.3584069)" /><path
     style="fill:#000000;fill-opacity:0.811705;stroke:none;stroke-width:5.034;stroke-linejoin:round;stroke-miterlimit:50;stroke-dasharray:none;stroke-opacity:0"
     id="rect1"
     width="300"
     height="200"
     x="0"
     y="0"
     inkscape:path-effect="#path-effect1"
     sodipodi:type="rect"
     d="m 10,0 h 280 a 10,10 45 0 1 10,10 v 180 a 10,10 135 0 1 -10,10 H 10 A 10,10 45 0 1 0,190 V 10 A 10,10 135 0 1 10,0 Z" /><path
     fill="#4495d4"
     d="m 172.14352,112.4888 c -0.36894,1.22484 -2.4725,5.91576 -3.54511,2.97897 -0.81898,-2.24125 -0.31008,-4.85207 -0.90575,-7.17787 -0.48099,-1.87901 -2.09082,-3.32693 -4.04147,-3.17392 -0.47553,0.0375 -0.93082,0.17398 -1.36549,0.37711 0.0858,-0.19884 0.17253,-0.39748 0.25687,-0.59429 1.64483,-3.82221 3.85599,-8.167998 4.34709,-12.34836 0.32687,-2.783784 -0.84506,-5.308421 -3.54794,-6.270441 -2.03276,-0.723652 -4.38673,0.392998 -4.79207,2.570478 -0.28398,1.527169 -0.0617,3.261126 -0.0617,4.816818 0,2.376527 -0.004,4.753458 0.005,7.129985 0.009,2.39894 0.007,4.79787 0.004,7.19661 -0.01,0.0185 -0.0178,0.0371 -0.0271,0.0554 -1.45652,2.84449 -3.1422,6.41122 -5.81959,8.27903 -2.77792,1.93768 -2.58799,-6.2572 -2.58859,-7.36326 -0.001,-1.9387 -0.017,-3.87742 -0.0394,-5.81572 0.8847,0 1.30097,0.002 2.18568,-0.008 0.78014,0.0143 1.50971,-2.3749 0,-2.35737 -0.58029,0.007 -1.05765,-0.0381 -1.63815,-0.0361 0.70733,-1.767164 1.67355,-3.552258 2.33051,-5.276639 1.15615,-3.0358 2.29065,-9.896245 -2.9363,-9.762394 -1.45388,0.03729 -2.38936,1.487441 -2.44943,2.831456 -0.17071,3.787364 0.0597,7.638294 0.12966,11.429528 0.005,0.274219 0.006,0.548849 0.0105,0.823279 -0.9462,-0.004 -0.95651,-0.008 -1.90272,-0.009 -0.60458,0 -1.50952,2.35615 0,2.35737 0.8024,6.2e-4 0.81695,-0.006 1.61914,-0.003 -0.89867,0.98728 -1.30421,1.68792 -2.31352,2.8225 -0.77185,0.86749 -1.16485,1.33301 -1.45894,1.65776 -0.66196,-1.35263 -1.70565,-2.60741 -2.9427,-3.7642 -3.34244,-3.12605 -9.69014,-5.731774 -10.13148,-10.872525 -0.50991,-5.919615 8.32404,-7.579006 11.90434,-4.839024 1.07909,0.82613 1.60295,-1.267412 1.18749,-1.791817 -3.62318,-2.72735 -9.02164,-2.236561 -12.52104,0.464304 -3.80098,2.933729 -3.73868,8.17553 -0.71177,11.65954 3.18083,3.661252 8.04431,5.560242 10.83091,9.629562 1.60923,2.34984 0.78136,4.69356 -1.16545,6.53408 -2.84709,2.69006 -7.66141,2.29849 -10.12541,-0.58879 -0.61833,-0.38444 -2.71886,0.53744 -1.70855,1.72112 3.85175,4.51428 11.5073,4.13412 14.70168,-0.6825 1.25446,-1.89144 1.61954,-3.6582 1.37379,-5.30088 0.0736,-0.0728 0.1523,-0.14974 0.24332,-0.23694 1.1778,-1.12725 2.25932,-2.56212 3.22757,-3.6961 0.004,0.8184 -0.0416,2.29157 -0.0402,3.10997 0.004,2.48388 -0.0856,4.96553 0.80522,7.32332 1.38006,3.65168 4.7943,2.98853 7.06169,0.58247 1.08415,-1.15068 2.04107,-2.45741 2.90535,-3.84421 -0.002,1.60336 -0.005,3.20653 -0.005,4.8101 0,1.52003 2.34042,1.52003 2.34042,0 0,-2.66237 0,-5.32472 0,-7.98709 0.71501,-0.84609 1.47472,-1.61293 2.44337,-2.18888 2.38795,-1.41961 2.54369,3.49215 2.5979,4.71474 0.08,1.81769 0.0965,4.14369 1.42597,5.56187 3.1867,3.39905 6.28723,-2.11025 7.10519,-4.82192 0.43911,-1.4581 -1.93508,-1.15964 -2.25709,-0.62627 z M 149.86598,91.836158 c -0.009,-0.696556 -0.54369,-4.304434 0.84123,-3.59932 2.38349,1.214239 0.34122,5.952417 -0.77529,8.540619 -0.0247,-1.646761 -0.044,-3.294132 -0.0659,-4.941299 z m 11.77045,9.165662 c -0.26214,0.6607 -0.53216,1.31652 -0.80825,1.96908 0,-1.60786 0,-3.215707 0,-4.823555 0,-2.076427 0,-4.152858 0,-6.229286 0,-1.62272 -0.44844,-3.974797 1.89117,-3.36503 4.50183,1.173901 -0.1519,10.100793 -1.08292,12.448791 z"
     id="path5"
     style="fill:#f6d776;fill-opacity:1;stroke-width:0.202997" /></svg>
